<mxfile host="app.diagrams.net" modified="2023-07-27T12:54:10.206Z" agent="Mozilla/5.0 (Macintosh; Intel Mac OS X 10_15_7) AppleWebKit/537.36 (KHTML, like Gecko) Chrome/100.0.4896.88 Safari/537.36" etag="fc7nmrdaO-Wh69CMN32d" version="21.6.5" type="google" pages="2">
  <diagram id="mKPR_tF34fwSEom8WbUE" name="Page-1">
    <mxGraphModel grid="0" page="0" gridSize="10" guides="1" tooltips="1" connect="1" arrows="1" fold="1" pageScale="1" pageWidth="850" pageHeight="1100" math="0" shadow="0">
      <root>
        <mxCell id="0" />
        <mxCell id="1" parent="0" />
        <mxCell id="vH4SDdyQZtRtSz1I4BlV-9" style="edgeStyle=orthogonalEdgeStyle;rounded=0;orthogonalLoop=1;jettySize=auto;html=1;exitX=1;exitY=0.5;exitDx=0;exitDy=0;entryX=0;entryY=0.5;entryDx=0;entryDy=0;" edge="1" parent="1" source="XJpMEH5ecX8DMTGSY15Y-1" target="0ZYes0WPWlXkPWautXvH-3">
          <mxGeometry relative="1" as="geometry" />
        </mxCell>
        <mxCell id="XJpMEH5ecX8DMTGSY15Y-1" value="Healthy Subjects EEG" style="rounded=0;whiteSpace=wrap;html=1;" vertex="1" parent="1">
          <mxGeometry x="80" y="160" width="105" height="60" as="geometry" />
        </mxCell>
        <mxCell id="0ZYes0WPWlXkPWautXvH-1" value="&lt;font style=&quot;font-size: 12px;&quot;&gt;Trials * 64 Channels * n_samples&lt;/font&gt;" style="text;strokeColor=none;align=center;fillColor=none;html=1;verticalAlign=middle;whiteSpace=wrap;rounded=0;fontSize=12;" vertex="1" parent="1">
          <mxGeometry x="72.5" y="230" width="112.5" height="30" as="geometry" />
        </mxCell>
        <mxCell id="XJpMEH5ecX8DMTGSY15Y-3" value="Binary labels: Left or Right" style="rounded=0;whiteSpace=wrap;html=1;" vertex="1" parent="1">
          <mxGeometry x="887.5" y="160" width="90" height="60" as="geometry" />
        </mxCell>
        <mxCell id="WY2hInzTcdkoLISbmQe5-2" style="edgeStyle=orthogonalEdgeStyle;rounded=0;orthogonalLoop=1;jettySize=auto;html=1;exitX=1;exitY=0.5;exitDx=0;exitDy=0;entryX=0;entryY=0.5;entryDx=0;entryDy=0;" edge="1" parent="1" source="0ZYes0WPWlXkPWautXvH-4" target="vH4SDdyQZtRtSz1I4BlV-12">
          <mxGeometry relative="1" as="geometry" />
        </mxCell>
        <mxCell id="WY2hInzTcdkoLISbmQe5-4" style="edgeStyle=orthogonalEdgeStyle;rounded=0;orthogonalLoop=1;jettySize=auto;html=1;exitX=1;exitY=0.5;exitDx=0;exitDy=0;" edge="1" parent="1" source="0ZYes0WPWlXkPWautXvH-4">
          <mxGeometry relative="1" as="geometry">
            <mxPoint x="612" y="394" as="targetPoint" />
          </mxGeometry>
        </mxCell>
        <mxCell id="0ZYes0WPWlXkPWautXvH-4" value="&lt;div&gt;Frequency Band Selection (Use Gamma Band)&lt;/div&gt;" style="rounded=0;whiteSpace=wrap;html=1;fillColor=#D1FFEB;strokeColor=#B8E0CF;" vertex="1" parent="1">
          <mxGeometry x="439" y="160" width="110" height="60" as="geometry" />
        </mxCell>
        <mxCell id="0ZYes0WPWlXkPWautXvH-5" value="Channel Selection" style="rounded=0;whiteSpace=wrap;html=1;" vertex="1" parent="1">
          <mxGeometry x="245" y="85" width="80" height="60" as="geometry" />
        </mxCell>
        <mxCell id="Ddn-pRKqjS6aQSt6YoN5-2" value="&lt;font style=&quot;font-size: 12px;&quot;&gt;Trials * 33 Channels * n_samples&lt;/font&gt;" style="text;strokeColor=none;align=center;fillColor=none;html=1;verticalAlign=middle;whiteSpace=wrap;rounded=0;fontSize=12;" vertex="1" parent="1">
          <mxGeometry x="60" y="430" width="142.5" height="30" as="geometry" />
        </mxCell>
        <mxCell id="vH4SDdyQZtRtSz1I4BlV-10" style="edgeStyle=orthogonalEdgeStyle;rounded=0;orthogonalLoop=1;jettySize=auto;html=1;exitX=1;exitY=0.5;exitDx=0;exitDy=0;entryX=0;entryY=0.5;entryDx=0;entryDy=0;" edge="1" parent="1" source="0ZYes0WPWlXkPWautXvH-3" target="0ZYes0WPWlXkPWautXvH-4">
          <mxGeometry relative="1" as="geometry" />
        </mxCell>
        <mxCell id="0ZYes0WPWlXkPWautXvH-3" value="Preprocessing" style="rounded=0;whiteSpace=wrap;html=1;fillColor=#D9F2FF;strokeColor=#C5DDE8;" vertex="1" parent="1">
          <mxGeometry x="240" y="160" width="90" height="60" as="geometry" />
        </mxCell>
        <mxCell id="Ddn-pRKqjS6aQSt6YoN5-3" value="" style="endArrow=none;dashed=1;html=1;rounded=0;" edge="1" parent="1">
          <mxGeometry width="50" height="50" relative="1" as="geometry">
            <mxPoint x="220" y="490" as="sourcePoint" />
            <mxPoint x="220" y="70" as="targetPoint" />
          </mxGeometry>
        </mxCell>
        <mxCell id="vH4SDdyQZtRtSz1I4BlV-24" style="edgeStyle=orthogonalEdgeStyle;rounded=0;orthogonalLoop=1;jettySize=auto;html=1;exitX=1;exitY=0.5;exitDx=0;exitDy=0;entryX=0;entryY=0.5;entryDx=0;entryDy=0;" edge="1" parent="1" source="XJpMEH5ecX8DMTGSY15Y-2" target="5l3tOpdZRw-moTgmQLgP-7">
          <mxGeometry relative="1" as="geometry" />
        </mxCell>
        <mxCell id="XJpMEH5ecX8DMTGSY15Y-2" value="Stroke Patients EEG" style="rounded=0;whiteSpace=wrap;html=1;" vertex="1" parent="1">
          <mxGeometry x="80" y="360" width="105" height="60" as="geometry" />
        </mxCell>
        <mxCell id="Ddn-pRKqjS6aQSt6YoN5-4" value="" style="endArrow=none;dashed=1;html=1;rounded=0;" edge="1" parent="1">
          <mxGeometry width="50" height="50" relative="1" as="geometry">
            <mxPoint x="840" y="490" as="sourcePoint" />
            <mxPoint x="840" y="70" as="targetPoint" />
          </mxGeometry>
        </mxCell>
        <mxCell id="vH4SDdyQZtRtSz1I4BlV-4" value="Input" style="rounded=0;whiteSpace=wrap;html=1;fillColor=#dae8fc;strokeColor=none;" vertex="1" parent="1">
          <mxGeometry x="60" y="50" width="105" height="30" as="geometry" />
        </mxCell>
        <mxCell id="vH4SDdyQZtRtSz1I4BlV-5" value="Process" style="rounded=0;whiteSpace=wrap;html=1;fillColor=#dae8fc;strokeColor=none;" vertex="1" parent="1">
          <mxGeometry x="467.5" y="50" width="105" height="30" as="geometry" />
        </mxCell>
        <mxCell id="vH4SDdyQZtRtSz1I4BlV-7" value="Output" style="rounded=0;whiteSpace=wrap;html=1;fillColor=#dae8fc;strokeColor=none;" vertex="1" parent="1">
          <mxGeometry x="877.5" y="50" width="105" height="30" as="geometry" />
        </mxCell>
        <mxCell id="vH4SDdyQZtRtSz1I4BlV-14" style="edgeStyle=orthogonalEdgeStyle;rounded=0;orthogonalLoop=1;jettySize=auto;html=1;exitX=1;exitY=0.5;exitDx=0;exitDy=0;entryX=0;entryY=0.5;entryDx=0;entryDy=0;" edge="1" parent="1" source="vH4SDdyQZtRtSz1I4BlV-12" target="XJpMEH5ecX8DMTGSY15Y-3">
          <mxGeometry relative="1" as="geometry" />
        </mxCell>
        <mxCell id="vH4SDdyQZtRtSz1I4BlV-18" style="edgeStyle=orthogonalEdgeStyle;rounded=0;orthogonalLoop=1;jettySize=auto;html=1;exitX=0.5;exitY=1;exitDx=0;exitDy=0;entryX=0.5;entryY=0;entryDx=0;entryDy=0;dashed=1;" edge="1" parent="1" source="vH4SDdyQZtRtSz1I4BlV-12" target="vH4SDdyQZtRtSz1I4BlV-15">
          <mxGeometry relative="1" as="geometry" />
        </mxCell>
        <mxCell id="vH4SDdyQZtRtSz1I4BlV-12" value="Model " style="rounded=0;whiteSpace=wrap;html=1;fillColor=#e1d5e7;strokeColor=#9673a6;" vertex="1" parent="1">
          <mxGeometry x="670" y="160" width="120" height="60" as="geometry" />
        </mxCell>
        <mxCell id="vH4SDdyQZtRtSz1I4BlV-17" style="edgeStyle=orthogonalEdgeStyle;rounded=0;orthogonalLoop=1;jettySize=auto;html=1;exitX=1;exitY=0.5;exitDx=0;exitDy=0;entryX=0;entryY=0.5;entryDx=0;entryDy=0;" edge="1" parent="1" source="vH4SDdyQZtRtSz1I4BlV-15" target="vH4SDdyQZtRtSz1I4BlV-16">
          <mxGeometry relative="1" as="geometry" />
        </mxCell>
        <mxCell id="vH4SDdyQZtRtSz1I4BlV-15" value="Transfered Model " style="rounded=0;whiteSpace=wrap;html=1;fillColor=#f7befe;strokeColor=#9673a6;" vertex="1" parent="1">
          <mxGeometry x="670" y="360" width="120" height="60" as="geometry" />
        </mxCell>
        <mxCell id="vH4SDdyQZtRtSz1I4BlV-16" value="Binary labels: Left or Right" style="rounded=0;whiteSpace=wrap;html=1;" vertex="1" parent="1">
          <mxGeometry x="887.5" y="360" width="90" height="60" as="geometry" />
        </mxCell>
        <mxCell id="vH4SDdyQZtRtSz1I4BlV-19" value="What kind of model?" style="shape=note;whiteSpace=wrap;html=1;backgroundOutline=1;darkOpacity=0.05;fillColor=#fff2cc;strokeColor=#d6b656;" vertex="1" parent="1">
          <mxGeometry x="730" y="80" width="80" height="90" as="geometry" />
        </mxCell>
        <mxCell id="vH4SDdyQZtRtSz1I4BlV-20" value="Which subjects do we want to use" style="shape=note;whiteSpace=wrap;html=1;backgroundOutline=1;darkOpacity=0.05;fillColor=#fff2cc;strokeColor=#d6b656;" vertex="1" parent="1">
          <mxGeometry x="-17.5" y="145" width="80" height="90" as="geometry" />
        </mxCell>
        <mxCell id="vH4SDdyQZtRtSz1I4BlV-21" value="Which subjects do we want to use" style="shape=note;whiteSpace=wrap;html=1;backgroundOutline=1;darkOpacity=0.05;fillColor=#fff2cc;strokeColor=#d6b656;" vertex="1" parent="1">
          <mxGeometry x="-17.5" y="330" width="80" height="90" as="geometry" />
        </mxCell>
        <mxCell id="vH4SDdyQZtRtSz1I4BlV-22" value="what transfer learning algorithm?" style="shape=note;whiteSpace=wrap;html=1;backgroundOutline=1;darkOpacity=0.05;fillColor=#fff2cc;strokeColor=#d6b656;" vertex="1" parent="1">
          <mxGeometry x="690" y="260" width="110" height="65" as="geometry" />
        </mxCell>
        <mxCell id="WY2hInzTcdkoLISbmQe5-3" style="edgeStyle=orthogonalEdgeStyle;rounded=0;orthogonalLoop=1;jettySize=auto;html=1;exitX=1;exitY=0.5;exitDx=0;exitDy=0;entryX=0;entryY=0.5;entryDx=0;entryDy=0;" edge="1" parent="1" source="5l3tOpdZRw-moTgmQLgP-4" target="vH4SDdyQZtRtSz1I4BlV-15">
          <mxGeometry relative="1" as="geometry" />
        </mxCell>
        <mxCell id="5l3tOpdZRw-moTgmQLgP-4" value="&lt;div&gt;Frequency Band Selection (Use Gamma Band)&lt;/div&gt;" style="rounded=0;whiteSpace=wrap;html=1;fillColor=#D1FFEB;strokeColor=#B8E0CF;" vertex="1" parent="1">
          <mxGeometry x="439" y="360" width="110" height="60" as="geometry" />
        </mxCell>
        <mxCell id="5l3tOpdZRw-moTgmQLgP-5" value="Channel Selection" style="rounded=0;whiteSpace=wrap;html=1;" vertex="1" parent="1">
          <mxGeometry x="245" y="438" width="80" height="60" as="geometry" />
        </mxCell>
        <mxCell id="5l3tOpdZRw-moTgmQLgP-6" style="edgeStyle=orthogonalEdgeStyle;rounded=0;orthogonalLoop=1;jettySize=auto;html=1;exitX=1;exitY=0.5;exitDx=0;exitDy=0;entryX=0;entryY=0.5;entryDx=0;entryDy=0;" edge="1" parent="1" source="5l3tOpdZRw-moTgmQLgP-7" target="5l3tOpdZRw-moTgmQLgP-4">
          <mxGeometry relative="1" as="geometry" />
        </mxCell>
        <mxCell id="5l3tOpdZRw-moTgmQLgP-7" value="Preprocessing" style="rounded=0;whiteSpace=wrap;html=1;fillColor=#D9F2FF;strokeColor=#C5DDE8;" vertex="1" parent="1">
          <mxGeometry x="240" y="360" width="90" height="60" as="geometry" />
        </mxCell>
        <mxCell id="vH4SDdyQZtRtSz1I4BlV-29" value="how to choose channels that works with both data?" style="shape=note;whiteSpace=wrap;html=1;backgroundOutline=1;darkOpacity=0.05;fillColor=#fff2cc;strokeColor=#d6b656;" vertex="1" parent="1">
          <mxGeometry x="555" y="260" width="110" height="65" as="geometry" />
        </mxCell>
        <mxCell id="WY2hInzTcdkoLISbmQe5-10" value="&lt;font style=&quot;font-size: 18px;&quot;&gt;19 * 640&lt;/font&gt;" style="text;html=1;align=center;verticalAlign=middle;resizable=0;points=[];autosize=1;strokeColor=none;fillColor=none;" vertex="1" parent="1">
          <mxGeometry x="335" y="156" width="85" height="34" as="geometry" />
        </mxCell>
        <mxCell id="C1EogUy47H12snzqF7P6-1" value="SF=160" style="text;html=1;strokeColor=none;fillColor=none;align=center;verticalAlign=middle;whiteSpace=wrap;rounded=0;" vertex="1" parent="1">
          <mxGeometry x="98.75" y="262" width="60" height="30" as="geometry" />
        </mxCell>
      </root>
    </mxGraphModel>
  </diagram>
  <diagram id="Ag6Xmp8JyERXYdjFChAi" name="Page-2">
    <mxGraphModel grid="0" page="0" gridSize="10" guides="1" tooltips="1" connect="1" arrows="1" fold="1" pageScale="1" pageWidth="850" pageHeight="1100" math="0" shadow="0">
      <root>
        <mxCell id="0" />
        <mxCell id="1" parent="0" />
        <mxCell id="M0MaoFvlaC26d0ImHP-q-1" style="edgeStyle=orthogonalEdgeStyle;rounded=0;orthogonalLoop=1;jettySize=auto;html=1;exitX=1;exitY=0.5;exitDx=0;exitDy=0;entryX=0;entryY=0.5;entryDx=0;entryDy=0;" edge="1" parent="1" source="M0MaoFvlaC26d0ImHP-q-2" target="M0MaoFvlaC26d0ImHP-q-43">
          <mxGeometry relative="1" as="geometry">
            <mxPoint x="240" y="190" as="targetPoint" />
          </mxGeometry>
        </mxCell>
        <mxCell id="M0MaoFvlaC26d0ImHP-q-2" value="Healthy Subjects EEG" style="rounded=0;whiteSpace=wrap;html=1;fillColor=#d5e8d4;strokeColor=#82b366;" vertex="1" parent="1">
          <mxGeometry x="102" y="160" width="105" height="60" as="geometry" />
        </mxCell>
        <mxCell id="M0MaoFvlaC26d0ImHP-q-3" value="&lt;div style=&quot;&quot;&gt;&lt;/div&gt;&lt;font style=&quot;font-size: 12px;&quot;&gt;&lt;br&gt;&lt;/font&gt;" style="text;strokeColor=none;align=left;fillColor=none;html=1;verticalAlign=middle;whiteSpace=wrap;rounded=0;fontSize=12;" vertex="1" parent="1">
          <mxGeometry x="75" y="245" width="127.5" height="80" as="geometry" />
        </mxCell>
        <mxCell id="M0MaoFvlaC26d0ImHP-q-4" value="Binary labels: Left or Right" style="rounded=0;whiteSpace=wrap;html=1;fillColor=#f5f5f5;fontColor=#333333;strokeColor=#666666;" vertex="1" parent="1">
          <mxGeometry x="738" y="160" width="90" height="60" as="geometry" />
        </mxCell>
        <mxCell id="M0MaoFvlaC26d0ImHP-q-5" style="edgeStyle=orthogonalEdgeStyle;rounded=0;orthogonalLoop=1;jettySize=auto;html=1;exitX=1;exitY=0.5;exitDx=0;exitDy=0;entryX=0;entryY=0.5;entryDx=0;entryDy=0;" edge="1" parent="1" target="M0MaoFvlaC26d0ImHP-q-21">
          <mxGeometry relative="1" as="geometry">
            <mxPoint x="430" y="190" as="sourcePoint" />
          </mxGeometry>
        </mxCell>
        <mxCell id="M0MaoFvlaC26d0ImHP-q-44" value="Sample dim:&lt;br&gt;19×640" style="edgeLabel;html=1;align=center;verticalAlign=middle;resizable=0;points=[];" connectable="0" vertex="1" parent="M0MaoFvlaC26d0ImHP-q-5">
          <mxGeometry x="-0.2103" y="3" relative="1" as="geometry">
            <mxPoint x="12" y="23" as="offset" />
          </mxGeometry>
        </mxCell>
        <mxCell id="M0MaoFvlaC26d0ImHP-q-12" value="" style="endArrow=none;dashed=1;html=1;rounded=0;" edge="1" parent="1">
          <mxGeometry width="50" height="50" relative="1" as="geometry">
            <mxPoint x="233" y="488" as="sourcePoint" />
            <mxPoint x="233" y="68" as="targetPoint" />
          </mxGeometry>
        </mxCell>
        <mxCell id="M0MaoFvlaC26d0ImHP-q-13" style="edgeStyle=orthogonalEdgeStyle;rounded=0;orthogonalLoop=1;jettySize=auto;html=1;exitX=1;exitY=0.5;exitDx=0;exitDy=0;entryX=0;entryY=0.5;entryDx=0;entryDy=0;" edge="1" parent="1" source="M0MaoFvlaC26d0ImHP-q-14" target="M0MaoFvlaC26d0ImHP-q-33">
          <mxGeometry relative="1" as="geometry" />
        </mxCell>
        <mxCell id="M0MaoFvlaC26d0ImHP-q-14" value="Stroke Patients EEG" style="rounded=0;whiteSpace=wrap;html=1;fillColor=#ffe6cc;strokeColor=#d79b00;" vertex="1" parent="1">
          <mxGeometry x="102" y="330" width="105" height="60" as="geometry" />
        </mxCell>
        <mxCell id="M0MaoFvlaC26d0ImHP-q-15" value="" style="endArrow=none;dashed=1;html=1;rounded=0;" edge="1" parent="1">
          <mxGeometry width="50" height="50" relative="1" as="geometry">
            <mxPoint x="706" y="490" as="sourcePoint" />
            <mxPoint x="706" y="70" as="targetPoint" />
          </mxGeometry>
        </mxCell>
        <mxCell id="M0MaoFvlaC26d0ImHP-q-16" value="Input" style="rounded=0;whiteSpace=wrap;html=1;fillColor=#dae8fc;strokeColor=none;" vertex="1" parent="1">
          <mxGeometry x="102" y="77" width="105" height="30" as="geometry" />
        </mxCell>
        <mxCell id="M0MaoFvlaC26d0ImHP-q-17" value="Process" style="rounded=0;whiteSpace=wrap;html=1;fillColor=#dae8fc;strokeColor=none;" vertex="1" parent="1">
          <mxGeometry x="437.5" y="77" width="105" height="30" as="geometry" />
        </mxCell>
        <mxCell id="M0MaoFvlaC26d0ImHP-q-18" value="Output" style="rounded=0;whiteSpace=wrap;html=1;fillColor=#dae8fc;strokeColor=none;" vertex="1" parent="1">
          <mxGeometry x="728" y="77" width="105" height="30" as="geometry" />
        </mxCell>
        <mxCell id="M0MaoFvlaC26d0ImHP-q-19" style="edgeStyle=orthogonalEdgeStyle;rounded=0;orthogonalLoop=1;jettySize=auto;html=1;exitX=1;exitY=0.5;exitDx=0;exitDy=0;entryX=0;entryY=0.5;entryDx=0;entryDy=0;" edge="1" parent="1" source="M0MaoFvlaC26d0ImHP-q-21" target="M0MaoFvlaC26d0ImHP-q-4">
          <mxGeometry relative="1" as="geometry" />
        </mxCell>
        <mxCell id="M0MaoFvlaC26d0ImHP-q-20" style="edgeStyle=orthogonalEdgeStyle;rounded=0;orthogonalLoop=1;jettySize=auto;html=1;exitX=0.5;exitY=1;exitDx=0;exitDy=0;entryX=0.5;entryY=0;entryDx=0;entryDy=0;dashed=1;" edge="1" parent="1" source="M0MaoFvlaC26d0ImHP-q-21" target="M0MaoFvlaC26d0ImHP-q-23">
          <mxGeometry relative="1" as="geometry" />
        </mxCell>
        <mxCell id="M0MaoFvlaC26d0ImHP-q-21" value="EEGNet" style="rounded=0;whiteSpace=wrap;html=1;fillColor=#FFE6FF;strokeColor=#9673a6;" vertex="1" parent="1">
          <mxGeometry x="551" y="160" width="120" height="60" as="geometry" />
        </mxCell>
        <mxCell id="M0MaoFvlaC26d0ImHP-q-22" style="edgeStyle=orthogonalEdgeStyle;rounded=0;orthogonalLoop=1;jettySize=auto;html=1;exitX=1;exitY=0.5;exitDx=0;exitDy=0;entryX=0;entryY=0.5;entryDx=0;entryDy=0;" edge="1" parent="1" source="M0MaoFvlaC26d0ImHP-q-23" target="M0MaoFvlaC26d0ImHP-q-24">
          <mxGeometry relative="1" as="geometry" />
        </mxCell>
        <mxCell id="M0MaoFvlaC26d0ImHP-q-23" value="Transfered Model " style="rounded=0;whiteSpace=wrap;html=1;fillColor=#f7befe;strokeColor=#9673a6;" vertex="1" parent="1">
          <mxGeometry x="551" y="330" width="120" height="60" as="geometry" />
        </mxCell>
        <mxCell id="M0MaoFvlaC26d0ImHP-q-24" value="Binary labels: Left or Right" style="rounded=0;whiteSpace=wrap;html=1;fillColor=#f5f5f5;fontColor=#333333;strokeColor=#666666;" vertex="1" parent="1">
          <mxGeometry x="738" y="330" width="90" height="60" as="geometry" />
        </mxCell>
        <mxCell id="M0MaoFvlaC26d0ImHP-q-28" value="Fine Tuning" style="shape=note;whiteSpace=wrap;html=1;backgroundOutline=1;darkOpacity=0.05;fillColor=#fff2cc;strokeColor=#d6b656;size=19;" vertex="1" parent="1">
          <mxGeometry x="554" y="247" width="122.5" height="43" as="geometry" />
        </mxCell>
        <mxCell id="M0MaoFvlaC26d0ImHP-q-29" style="edgeStyle=orthogonalEdgeStyle;rounded=0;orthogonalLoop=1;jettySize=auto;html=1;exitX=1;exitY=0.5;exitDx=0;exitDy=0;entryX=0;entryY=0.5;entryDx=0;entryDy=0;" edge="1" parent="1" target="M0MaoFvlaC26d0ImHP-q-23">
          <mxGeometry relative="1" as="geometry">
            <mxPoint x="430" y="360" as="sourcePoint" />
          </mxGeometry>
        </mxCell>
        <mxCell id="M0MaoFvlaC26d0ImHP-q-33" value="&lt;font style=&quot;font-size: 13px;&quot;&gt;&amp;nbsp; &amp;nbsp; &lt;b style=&quot;&quot;&gt;Preprocessing:&lt;/b&gt;&lt;/font&gt;&lt;ul style=&quot;border-color: var(--border-color); font-size: 13px;&quot;&gt;&lt;li style=&quot;border-color: var(--border-color);&quot;&gt;&lt;font style=&quot;font-size: 13px;&quot;&gt;Channel Selection&lt;/font&gt;&lt;/li&gt;&lt;li style=&quot;border-color: var(--border-color);&quot;&gt;&lt;span style=&quot;border-color: var(--border-color); background-color: initial;&quot;&gt;&lt;font style=&quot;font-size: 13px;&quot;&gt;Resampling&lt;/font&gt;&lt;/span&gt;&lt;/li&gt;&lt;li style=&quot;border-color: var(--border-color);&quot;&gt;&lt;span style=&quot;border-color: var(--border-color); background-color: initial;&quot;&gt;&lt;font style=&quot;font-size: 13px;&quot;&gt;Filtering&lt;/font&gt;&lt;/span&gt;&lt;/li&gt;&lt;li style=&quot;border-color: var(--border-color);&quot;&gt;&lt;span style=&quot;border-color: var(--border-color); background-color: initial;&quot;&gt;&lt;font style=&quot;font-size: 13px;&quot;&gt;Artifact Removal&lt;/font&gt;&lt;/span&gt;&lt;/li&gt;&lt;/ul&gt;" style="rounded=0;whiteSpace=wrap;html=1;fillColor=#D9F2FF;strokeColor=#C5DDE8;align=left;fontSize=12;" vertex="1" parent="1">
          <mxGeometry x="260" y="300" width="170" height="120" as="geometry" />
        </mxCell>
        <mxCell id="M0MaoFvlaC26d0ImHP-q-43" value="&lt;font style=&quot;font-size: 13px;&quot;&gt;&amp;nbsp; &amp;nbsp; &lt;b&gt;Preprocessing:&lt;/b&gt;&lt;/font&gt;&lt;ul style=&quot;border-color: var(--border-color); font-size: 13px;&quot;&gt;&lt;li style=&quot;border-color: var(--border-color);&quot;&gt;&lt;font style=&quot;font-size: 13px;&quot;&gt;Channel Selection&lt;/font&gt;&lt;/li&gt;&lt;li style=&quot;border-color: var(--border-color);&quot;&gt;&lt;span style=&quot;border-color: var(--border-color); background-color: initial;&quot;&gt;&lt;font style=&quot;font-size: 13px;&quot;&gt;Filtering&lt;/font&gt;&lt;/span&gt;&lt;/li&gt;&lt;/ul&gt;" style="rounded=0;whiteSpace=wrap;html=1;fillColor=#D9F2FF;strokeColor=#C5DDE8;align=left;" vertex="1" parent="1">
          <mxGeometry x="260" y="140" width="170" height="100" as="geometry" />
        </mxCell>
        <mxCell id="M0MaoFvlaC26d0ImHP-q-45" value="Sample dim:&lt;br&gt;19×640" style="edgeLabel;html=1;align=center;verticalAlign=middle;resizable=0;points=[];" connectable="0" vertex="1" parent="1">
          <mxGeometry x="490.00297694939695" y="380.00353018093404" as="geometry" />
        </mxCell>
        <mxCell id="M0MaoFvlaC26d0ImHP-q-46" value="&lt;div style=&quot;border-color: var(--border-color);&quot;&gt;&lt;span style=&quot;background-color: initial;&quot;&gt;&amp;nbsp;- 109 subjects&lt;/span&gt;&lt;br&gt;&lt;span style=&quot;background-color: initial;&quot;&gt;&amp;nbsp;- 45 trials per subject&lt;/span&gt;&lt;br&gt;&lt;span style=&quot;background-color: initial;&quot;&gt;&amp;nbsp;- 64 Channels&amp;nbsp;&lt;/span&gt;&lt;br&gt;&lt;span style=&quot;background-color: initial;&quot;&gt;&amp;nbsp;- SF=160&lt;/span&gt;&lt;br&gt;&lt;/div&gt;" style="shape=note;whiteSpace=wrap;html=1;backgroundOutline=1;darkOpacity=0.05;align=left;fillColor=#fff2cc;strokeColor=#d6b656;" vertex="1" parent="1">
          <mxGeometry x="1" y="190" width="130" height="100" as="geometry" />
        </mxCell>
        <mxCell id="M0MaoFvlaC26d0ImHP-q-47" value="&lt;div style=&quot;border-color: var(--border-color);&quot;&gt;&lt;span style=&quot;background-color: initial;&quot;&gt;&amp;nbsp;- 50 subjects&lt;/span&gt;&lt;br&gt;&lt;span style=&quot;background-color: initial;&quot;&gt;&amp;nbsp;- 80 trials per subject&lt;/span&gt;&lt;br&gt;&lt;span style=&quot;background-color: initial;&quot;&gt;&amp;nbsp;- 33 Channels&amp;nbsp;&lt;/span&gt;&lt;br&gt;&lt;span style=&quot;background-color: initial;&quot;&gt;&amp;nbsp;- SF=500&lt;/span&gt;&lt;br&gt;&lt;/div&gt;" style="shape=note;whiteSpace=wrap;html=1;backgroundOutline=1;darkOpacity=0.05;align=left;fillColor=#fff2cc;strokeColor=#d6b656;" vertex="1" parent="1">
          <mxGeometry x="1" y="359" width="130" height="100" as="geometry" />
        </mxCell>
      </root>
    </mxGraphModel>
  </diagram>
</mxfile>
